PathFileType	4	(X/Y/Z)	C:/Users/opensim2020/Desktop/walking_exp_matlab/subject02_walking04_straight_01.trc	
DataRate	CameraRate	NumFrames	NumMarkers	Units	OrigDataRate	OrigDataStartFrame	OrigNumFrames	
100.00	100.00	4	42	mm	100.00	727	302	
Frame#	Time	LFHD			RFHD			LBHD			RBHD			C7			T10			CLAV			STRN			RBAK			LSHO			LUPA			LELB			LFRM			LWRA			LWRB			LFIN			RSHO			RUPA			RELB			RFRM			RWRA			RWRB			RFIN			LASI			RASI			LPSI			RPSI			LTHI			LKNE			LTIB			LANK			LHEE			LTOE			RTHI			RKNE			RTIB			RANK			RHEE			RTOE			*39			*40			*41			
		X1	Y1	Z1	X2	Y2	Z2	X3	Y3	Z3	X4	Y4	Z4	X5	Y5	Z5	X6	Y6	Z6	X7	Y7	Z7	X8	Y8	Z8	X9	Y9	Z9	X10	Y10	Z10	X11	Y11	Z11	X12	Y12	Z12	X13	Y13	Z13	X14	Y14	Z14	X15	Y15	Z15	X16	Y16	Z16	X17	Y17	Z17	X18	Y18	Z18	X19	Y19	Z19	X20	Y20	Z20	X21	Y21	Z21	X22	Y22	Z22	X23	Y23	Z23	X24	Y24	Z24	X25	Y25	Z25	X26	Y26	Z26	X27	Y27	Z27	X28	Y28	Z28	X29	Y29	Z29	X30	Y30	Z30	X31	Y31	Z31	X32	Y32	Z32	X33	Y33	Z33	X34	Y34	Z34	X35	Y35	Z35	X36	Y36	Z36	X37	Y37	Z37	X38	Y38	Z38	X39	Y39	Z39	X40	Y40	Z40	X41	Y41	Z41	X42	Y42	Z42	

1	0.000	-1074.59998	-1475.13025	1731.89355	-930.47705	-1485.06848	1706.38184	-1097.69373	-1591.92468	1641.29016	-958.79529	-1616.61755	1612.00952	-1023.30994	-1647.42114	1514.63782	-1003.16437	-1732.66467	1249.72437	-1042.22754	-1517.51270	1430.91125	-1041.01538	-1490.72375	1253.84485	-950.16370	-1718.74646	1352.35730	-1209.30505	-1586.28186	1479.18933	-1292.77051	-1614.10278	1277.36157	-1297.80029	-1617.88257	1132.91833	-1292.65540	-1592.32080	1001.65601	-1238.63464	-1527.13306	893.56561	-1277.96558	-1566.98914	884.27051	-1270.09070	-1536.26331	825.36700	-843.51904	-1553.61328	1471.04309	-757.51459	-1597.37695	1284.27014	-743.06885	-1598.84949	1136.67285	-727.72168	-1572.03381	1018.23657	-751.03760	-1523.63867	893.41510	-720.06348	-1570.17505	887.74164	-717.82959	-1530.23572	827.40698	-1155.89771	-1547.84668	963.51233	-902.65466	-1504.89172	968.32129	-1041.85583	-1736.27747	1021.82825	-928.46796	-1723.99170	1025.27185	-1164.94849	-1660.55542	656.81470	-1112.83093	-1716.85681	462.91760	-1083.61182	-1798.56812	287.33856	-1034.41077	-1812.98975	63.15023	-974.53369	-1835.16345	36.99030	-1087.00842	-1667.60242	24.13995	-811.65662	-1491.78186	684.40149	-846.77716	-1424.53613	487.13864	-823.48602	-1420.44836	300.22830	-843.75421	-1397.42322	106.78455	-893.05951	-1428.36182	44.47679	-861.24811	-1238.34473	69.84470	-990.25793	-1591.40247	1778.38940	-3356.86646	2845.74683	1033.68469			 
2	0.010	-1074.55322	-1469.84863	1730.81360	-930.19019	-1479.91870	1705.29663	-1097.46423	-1587.05920	1640.96655	-958.55554	-1612.03113	1611.82153	-1023.03094	-1643.08545	1514.23999	-1002.83447	-1728.61121	1249.42737	-1041.96301	-1513.26978	1430.16040	-1038.24329	-1484.71423	1253.46362	-949.80737	-1714.43286	1351.83960	-1209.06506	-1581.56055	1478.52527	-1292.75195	-1609.84973	1276.72327	-1297.31067	-1613.93445	1132.09106	-1292.23108	-1589.27197	1000.67664	-1236.70081	-1525.08936	892.20612	-1276.64148	-1564.64697	882.91760	-1268.98352	-1534.62231	824.22339	-843.25848	-1549.44836	1470.45203	-757.17175	-1593.38501	1283.65112	-742.71387	-1595.26550	1135.98254	-727.35724	-1568.70239	1017.52820	-751.14966	-1519.85583	892.42200	-719.67920	-1567.09070	887.09186	-717.36584	-1527.66516	826.75934	-1155.59875	-1544.07288	962.99030	-902.14703	-1501.45789	967.59045	-1041.53162	-1732.63855	1021.35754	-928.20734	-1720.39233	1024.92578	-1164.60059	-1657.34082	656.44482	-1112.75891	-1714.48474	462.75241	-1083.42676	-1797.22168	287.61487	-1034.38684	-1812.81958	63.52832	-974.61523	-1835.38110	37.77410	-1087.11328	-1667.46948	24.12842	-811.07172	-1488.44739	683.94153	-846.19202	-1420.54382	486.77866	-823.82202	-1415.50903	299.88013	-844.36096	-1391.60620	106.87894	-894.03033	-1421.62488	44.36921	-861.33020	-1232.11377	70.12651	-989.99908	-1585.72083	1778.04565						 
3	0.020	-1074.00842	-1464.23315	1729.62378	-929.70123	-1474.66638	1704.23535	-1097.13440	-1582.05127	1640.55396	-958.24335	-1607.37341	1611.50623	-1022.68744	-1638.44446	1513.70850	-1002.42822	-1724.43372	1249.04004	-1041.48999	-1508.72119	1429.39063	-1038.55566	-1480.95422	1252.41626	-948.90314	-1712.37402	1352.78674	-1208.77881	-1576.94446	1478.03015	-1292.62451	-1605.45813	1276.09656	-1296.72144	-1609.89160	1131.33728	-1291.34009	-1586.16296	999.76563	-1235.82312	-1523.21143	890.95294	-1272.41931	-1564.84705	882.96613	-1267.67908	-1533.02686	822.97528	-842.54883	-1545.85291	1469.83521	-756.78021	-1589.30798	1282.94580	-742.36035	-1591.42004	1135.16553	-726.93652	-1565.10022	1016.88409	-750.38104	-1516.80542	891.64392	-719.21161	-1563.82959	886.35730	-717.20776	-1524.02588	825.74097	-1155.20923	-1540.62842	962.22662	-901.61401	-1497.76892	966.78119	-1041.14209	-1728.82056	1020.79840	-927.90186	-1716.71472	1024.48267	-1164.49170	-1654.30249	656.10852	-1112.64856	-1712.20691	462.55798	-1083.17322	-1795.96802	287.99542	-1034.33337	-1812.72375	63.66706	-974.64960	-1835.40308	38.35641	-1087.17993	-1667.61487	24.11879	-810.45081	-1484.93799	683.44049	-845.82227	-1416.81165	486.44012	-824.01819	-1410.64490	299.41678	-845.23547	-1385.38879	106.43297	-895.04706	-1415.37390	44.20596	-861.36151	-1226.23560	70.14368	-989.63556	-1579.88269	1777.61255	-3356.90454	2845.85059	1033.60144			 
4	0.030	-1073.46973	-1458.57117	1728.42859	-929.10718	-1469.35095	1703.10217	-1096.76758	-1576.89551	1640.13220	-957.86072	-1602.41760	1611.28259	-1022.35547	-1633.38416	1512.96594	-1001.96558	-1720.12708	1248.64111	-1041.06763	-1503.74597	1428.61255	-1037.97827	-1476.80786	1251.33215	-949.03113	-1705.69043	1351.05762	-1208.38940	-1572.01111	1477.24609	-1292.31165	-1600.77893	1275.24084	-1296.31738	-1605.57690	1130.27539	-1290.57227	-1583.09778	998.93268	-1234.68652	-1521.10669	889.20844	-1274.88513	-1560.37158	880.63013	-1266.94580	-1531.32068	821.33899	-842.34601	-1540.31519	1468.86377	-756.17932	-1584.64294	1282.20007	-741.82635	-1587.64221	1134.51172	-726.30042	-1561.53479	1016.11523	-749.86975	-1513.61450	890.50348	-718.59344	-1560.37708	885.54327	-716.60291	-1520.57141	824.72577	-1154.76404	-1536.65076	961.61591	-901.11609	-1493.96643	965.89862	-1040.77429	-1724.84961	1020.16968	-927.61304	-1712.91321	1023.94775	-1164.16516	-1651.22131	655.81158	-1112.46204	-1709.98267	462.54617	-1083.02271	-1794.81641	288.37500	-1034.40967	-1812.49146	64.31325	-974.62183	-1835.44983	39.03218	-1087.24097	-1667.61023	24.06965	-809.82416	-1481.66211	682.88184	-845.50537	-1412.48718	485.99203	-824.05743	-1406.12012	298.97952	-845.73334	-1380.22717	106.24083	-896.06653	-1409.88550	44.32154	-861.08105	-1220.76428	70.02397	-989.26910	-1573.93982	1777.24243	-3360.23389	2845.10107	1033.77136			 
